<svg width="32" height="32" viewBox="0 0 32 32" fill="none" xmlns="http://www.w3.org/2000/svg">
<path d="M12.8947 5.51467C12.9682 4.74179 13.3272 4.02406 13.9015 3.50171C14.4759 2.97935 15.2243 2.6899 16.0007 2.6899C16.7771 2.6899 17.5255 2.97935 18.0999 3.50171C18.6743 4.02406 19.0332 4.74179 19.1067 5.51467C19.1509 6.01394 19.3147 6.49523 19.5842 6.91779C19.8538 7.34035 20.2212 7.69175 20.6553 7.94224C21.0895 8.19273 21.5776 8.33494 22.0783 8.35683C22.5791 8.37872 23.0777 8.27965 23.532 8.068C24.2375 7.7477 25.0369 7.70136 25.7747 7.93798C26.5125 8.1746 27.1358 8.67727 27.5234 9.34814C27.911 10.019 28.0351 10.8101 27.8716 11.5674C27.708 12.3248 27.2686 12.9942 26.6387 13.4453C26.2285 13.7331 25.8937 14.1155 25.6626 14.56C25.4314 15.0046 25.3108 15.4983 25.3108 15.9993C25.3108 16.5004 25.4314 16.9941 25.6626 17.4386C25.8937 17.8832 26.2285 18.2655 26.6387 18.5533C27.2686 19.0045 27.708 19.6739 27.8716 20.4312C28.0351 21.1886 27.911 21.9797 27.5234 22.6505C27.1358 23.3214 26.5125 23.8241 25.7747 24.0607C25.0369 24.2973 24.2375 24.251 23.532 23.9307C23.0777 23.719 22.5791 23.6199 22.0783 23.6418C21.5776 23.6637 21.0895 23.8059 20.6553 24.0564C20.2212 24.3069 19.8538 24.6583 19.5842 25.0809C19.3147 25.5034 19.1509 25.9847 19.1067 26.484C19.0332 27.2569 18.6743 27.9746 18.0999 28.497C17.5255 29.0193 16.7771 29.3088 16.0007 29.3088C15.2243 29.3088 14.4759 29.0193 13.9015 28.497C13.3272 27.9746 12.9682 27.2569 12.8947 26.484C12.8506 25.9845 12.6868 25.5031 12.4172 25.0804C12.1476 24.6577 11.78 24.3061 11.3457 24.0556C10.9114 23.8051 10.4231 23.663 9.92215 23.6412C9.42123 23.6194 8.92244 23.7187 8.46804 23.9307C7.76256 24.251 6.96314 24.2973 6.22537 24.0607C5.48761 23.8241 4.86427 23.3214 4.47668 22.6505C4.0891 21.9797 3.96499 21.1886 4.12852 20.4312C4.29205 19.6739 4.73151 19.0045 5.36137 18.5533C5.77153 18.2655 6.10635 17.8832 6.33749 17.4386C6.56864 16.9941 6.68931 16.5004 6.68931 15.9993C6.68931 15.4983 6.56864 15.0046 6.33749 14.56C6.10635 14.1155 5.77153 13.7331 5.36137 13.4453C4.73239 12.9939 4.29371 12.3248 4.13057 11.568C3.96744 10.8112 4.09152 10.0207 4.47869 9.35028C4.86585 8.67985 5.48846 8.1773 6.22549 7.94032C6.96253 7.70334 7.76135 7.74885 8.46671 8.068C8.92105 8.27965 9.4197 8.37872 9.92044 8.35683C10.4212 8.33494 10.9093 8.19273 11.3434 7.94224C11.7776 7.69175 12.145 7.34035 12.4145 6.91779C12.6841 6.49523 12.8479 6.01394 12.892 5.51467" stroke="black" strokeWidth="4" strokeLinecap="round" strokeLinejoin="round"/>
<path d="M16 20C18.2091 20 20 18.2091 20 16C20 13.7909 18.2091 12 16 12C13.7909 12 12 13.7909 12 16C12 18.2091 13.7909 20 16 20Z" stroke="black" strokeWidth="4" strokeLinecap="round" strokeLinejoin="round"/>
</svg>
