   <svg width="24" height="24" viewBox="0 0 28 31" fill="none" xmlns="http://www.w3.org/2000/svg">
                <path d="M10.8365 4.82476C10.9099 4.05188 11.2689 3.33416 11.8433 2.8118C12.4176 2.28945 13.1661 2 13.9425 2C14.7188 2 15.4673 2.28945 16.0417 2.8118C16.616 3.33416 16.975 4.05188 17.0485 4.82476C17.0926 5.32404 17.2564 5.80532 17.526 6.22788C17.7956 6.65045 18.163 7.00184 18.5971 7.25233C19.0312 7.50282 19.5193 7.64503 20.0201 7.66692C20.5208 7.68882 21.0195 7.58975 21.4738 7.3781C22.1793 7.0578 22.9787 7.01146 23.7165 7.24808C24.4542 7.4847 25.0776 7.98736 25.4652 8.65824C25.8528 9.32911 25.9769 10.1202 25.8133 10.8775C25.6498 11.6349 25.2103 12.3043 24.5805 12.7554C24.1703 13.0432 23.8355 13.4256 23.6044 13.8701C23.3732 14.3147 23.2525 14.8084 23.2525 15.3094C23.2525 15.8105 23.3732 16.3042 23.6044 16.7487C23.8355 17.1933 24.1703 17.5756 24.5805 17.8634C25.2103 18.3146 25.6498 18.984 25.8133 19.7413C25.9769 20.4987 25.8528 21.2898 25.4652 21.9606C25.0776 22.6315 24.4542 23.1342 23.7165 23.3708C22.9787 23.6074 22.1793 23.5611 21.4738 23.2408C21.0195 23.0291 20.5208 22.93 20.0201 22.9519C19.5193 22.9738 19.0312 23.116 18.5971 23.3665C18.163 23.617 17.7956 23.9684 17.526 24.391C17.2564 24.8135 17.0926 25.2948 17.0485 25.7941C16.975 26.567 16.616 27.2847 16.0417 27.8071C15.4673 28.3294 14.7188 28.6189 13.9425 28.6189C13.1661 28.6189 12.4176 28.3294 11.8433 27.8071C11.2689 27.2847 10.9099 26.567 10.8365 25.7941C10.7924 25.2946 10.6286 24.8132 10.359 24.3905C10.0893 23.9677 9.72178 23.6162 9.28746 23.3657C8.85314 23.1152 8.36484 22.9731 7.86392 22.9513C7.363 22.9295 6.86421 23.0288 6.40981 23.2408C5.70433 23.5611 4.90491 23.6074 4.16715 23.3708C3.42938 23.1342 2.80604 22.6315 2.41846 21.9606C2.03087 21.2898 1.90676 20.4987 2.07029 19.7413C2.23382 18.984 2.67328 18.3146 3.30315 17.8634C3.71331 17.5756 4.04812 17.1933 4.27926 16.7487C4.51041 16.3042 4.63108 15.8105 4.63108 15.3094C4.63108 14.8084 4.51041 14.3147 4.27926 13.8701C4.04812 13.4256 3.71331 13.0432 3.30315 12.7554C2.67416 12.304 2.23548 11.6349 2.07235 10.8781C1.90922 10.1213 2.03329 9.33082 2.42046 8.66038C2.80763 7.98994 3.43023 7.4874 4.16727 7.25042C4.9043 7.01344 5.70312 7.05894 6.40848 7.3781C6.86282 7.58975 7.36147 7.68882 7.86221 7.66692C8.36296 7.64503 8.85106 7.50282 9.2852 7.25233C9.71934 7.00184 10.0867 6.65045 10.3563 6.22788C10.6259 5.80532 10.7897 5.32404 10.8338 4.82476" stroke="black" strokeWidth="4" strokeLinecap="round" strokeLinecap="round" />
                <path d="M13.9418 19.3101C16.1509 19.3101 17.9418 17.5192 17.9418 15.3101C17.9418 13.101 16.1509 11.3101 13.9418 11.3101C11.7326 11.3101 9.94177 13.101 9.94177 15.3101C9.94177 17.5192 11.7326 19.3101 13.9418 19.3101Z" stroke="black" strokeWidth="4" strokeLinecap="round" strokeLinejoin="round" />
            </svg>